<svg version="1.1" id="Layer_1" xmlns="http://www.w3.org/2000/svg" xmlns:xlink="http://www.w3.org/1999/xlink" x="0px" y="0px"
	 width="100%" viewBox="0 0 1024 1024" enable-background="new 0 0 1024 1024" xml:space="preserve">
<path fill="#000000" opacity="1.000000" stroke="none" 
	d="
M170.398346,392.652863 
	C163.191864,388.669250 163.083420,388.378601 165.753510,380.785370 
	C167.561111,379.900909 168.922226,381.174469 170.324738,381.901245 
	C187.330139,390.713226 204.245346,399.703308 221.355652,408.305634 
	C225.171173,410.223938 225.656662,412.679901 225.237671,416.289978 
	C224.820267,419.886505 222.937393,421.247772 219.476624,421.829895 
	C205.547241,424.172913 191.661591,426.776184 177.761856,429.294678 
	C176.800323,429.468903 175.855621,429.735962 173.726364,430.236420 
	C177.838104,432.501160 181.049774,434.329376 184.314499,436.057404 
	C194.470993,441.433289 204.562515,446.943573 214.863663,452.028107 
	C218.346207,453.747009 218.763992,456.038605 218.249619,459.261963 
	C217.731384,462.509460 217.144913,465.030334 212.873322,465.687897 
	C193.630981,468.650024 174.452194,472.024323 155.242767,475.203125 
	C153.977982,475.412445 152.648453,475.230469 151.413040,475.230469 
	C150.184631,467.490936 151.342834,465.752838 158.492035,464.544098 
	C172.268906,462.214813 186.055466,459.942841 199.834991,457.629303 
	C200.629379,457.495911 201.396957,457.202881 202.167343,456.986847 
	C202.206238,455.233429 200.798447,455.075287 199.900146,454.598206 
	C187.104248,447.802307 174.328842,440.964142 161.427094,434.373810 
	C158.246429,432.749054 157.185242,430.877167 157.638168,427.316132 
	C158.095367,423.721588 160.071457,422.639954 163.153275,422.108673 
	C177.075317,419.708862 190.982346,417.221954 204.897430,414.781494 
	C206.202896,414.552551 207.566895,414.544708 209.222961,412.864380 
	C196.230789,406.106110 183.474991,399.470795 170.398346,392.652863 
z"/>
<path fill="#000000" opacity="1.000000" stroke="none" 
	d="
M753.363953,311.648865 
	C751.678040,309.186218 752.403992,307.716248 754.506409,306.468658 
	C770.975769,296.695709 787.431885,286.900330 803.869080,277.073425 
	C806.126709,275.723755 807.562622,276.436768 808.760864,278.505707 
	C813.433533,286.573669 818.660461,294.370148 822.719360,302.734314 
	C833.259583,324.454803 820.706726,347.438995 796.718262,349.940735 
	C784.257324,351.240295 774.406372,345.247894 767.514099,335.025940 
	C762.494934,327.582001 758.179504,319.663574 753.363953,311.648865 
M792.638062,339.766266 
	C811.102295,339.331360 821.585205,323.893677 814.593506,307.033630 
	C812.568359,302.150177 809.327332,297.784882 806.985474,293.014282 
	C805.225647,289.429260 803.316772,289.088715 799.993896,291.120941 
	C788.777832,297.980621 777.420044,304.608551 766.134705,311.355621 
	C765.615295,311.666138 765.272400,312.271790 764.572937,313.042145 
	C768.328125,319.188904 771.481262,325.618683 776.010498,331.181519 
	C780.059753,336.154846 785.231750,339.273651 792.638062,339.766266 
z"/>
<path fill="#000000" opacity="1.000000" stroke="none" 
	d="
M271.667969,246.305481 
	C267.657898,241.599197 263.954742,237.093826 260.071259,232.749649 
	C258.021362,230.456573 257.699371,228.834412 260.392242,226.640259 
	C266.843994,221.383377 272.857605,215.580109 279.395325,210.438950 
	C299.989899,194.243713 327.024811,203.183640 332.700409,228.066940 
	C335.349213,239.679962 331.107178,249.530487 323.040649,257.573914 
	C316.692017,263.904358 309.464508,269.344330 302.812866,275.384125 
	C299.961700,277.973022 298.259583,277.385529 295.964508,274.637482 
	C288.065918,265.180115 279.939514,255.912994 271.667969,246.305481 
M277.974915,223.498764 
	C275.664429,225.537125 272.812317,227.083038 271.522400,230.365845 
	C281.327209,241.771957 291.049286,253.081833 301.237762,264.934235 
	C307.792999,258.434784 315.571075,254.273544 320.081421,246.546326 
	C324.828522,238.413483 324.657959,230.390778 319.443146,222.609253 
	C314.039032,214.545273 306.442810,210.890900 296.734375,212.340134 
	C289.278076,213.453156 283.868103,218.238052 277.974915,223.498764 
z"/>
<path fill="#000000" opacity="1.000000" stroke="none" 
	d="
M217.638000,307.190735 
	C219.061127,308.021210 220.193756,308.669128 221.880997,309.634338 
	C221.444885,300.836823 224.151382,293.703064 230.286240,287.943726 
	C234.204697,284.265137 238.771454,282.138580 244.104996,281.743591 
	C255.839264,280.874573 268.253815,289.209930 271.098816,299.803192 
	C274.647278,313.015717 268.911011,323.646210 254.020294,330.948792 
	C255.960800,332.840668 258.547607,334.261932 256.147308,337.798676 
	C253.854248,341.177399 252.218460,341.750366 248.715332,339.413391 
	C232.670074,328.709503 216.464752,318.245148 200.291153,307.734406 
	C197.713394,306.059174 195.691315,304.661072 198.102844,301.086884 
	C200.302444,297.826752 202.280167,296.842957 205.692322,299.316711 
	C209.457260,302.046234 213.452545,304.458008 217.638000,307.190735 
M232.503723,299.155609 
	C228.789215,307.111389 229.770035,313.658875 235.419296,318.618835 
	C241.408096,323.876892 249.385284,324.999939 255.162186,321.108459 
	C260.501740,317.511627 263.579590,312.504150 262.536896,305.867645 
	C261.344147,298.276184 256.270905,293.877258 249.228470,291.922363 
	C242.316681,290.003784 236.905106,292.767731 232.503723,299.155609 
z"/>
<path fill="#000000" opacity="1.000000" stroke="none" 
	d="
M603.892212,151.752655 
	C614.188171,155.674942 619.664673,163.087585 619.848022,173.500244 
	C620.023438,183.467758 616.583740,192.485764 607.108765,197.265991 
	C595.081238,203.333954 584.318298,200.361725 574.983521,190.346695 
	C572.473572,196.163528 571.425232,201.857040 570.037659,207.423706 
	C569.154175,210.968323 567.529785,211.848145 564.001221,210.811111 
	C560.660828,209.829407 559.326172,208.603577 560.328552,204.854568 
	C565.260071,186.409470 569.985046,167.908783 574.698608,149.406250 
	C575.330322,146.926285 575.856384,144.808228 579.156921,145.656097 
	C581.875366,146.354431 585.063049,146.504562 584.182312,150.754608 
	C584.094727,151.177094 584.336426,151.667816 584.509460,152.561478 
	C590.808105,149.716278 597.125793,149.365845 603.892212,151.752655 
M582.169067,164.767715 
	C581.319641,166.558990 580.202087,168.273819 579.665955,170.154404 
	C576.975647,179.591629 581.298889,188.241501 589.682068,190.488388 
	C598.797913,192.931641 607.315552,187.830750 609.506592,178.616135 
	C611.282715,171.146240 608.602966,164.292099 602.596863,160.942856 
	C595.973694,157.249466 588.570007,158.451294 582.169067,164.767715 
z"/>
<path fill="#000000" opacity="1.000000" stroke="none" 
	d="
M820.887390,555.289673 
	C824.541016,553.084167 826.131714,549.770142 827.709595,546.451721 
	C830.136353,541.348267 832.107422,536.004395 835.408630,531.357666 
	C839.120728,526.132446 843.973328,522.901367 850.650391,523.801697 
	C857.178955,524.681946 862.097107,527.936401 864.784851,534.224976 
	C868.938293,543.942993 865.487793,562.139709 858.174255,569.438416 
	C855.206055,572.400635 853.435303,569.577148 851.321289,568.366333 
	C848.767883,566.903809 849.718018,565.287964 851.090027,563.474487 
	C855.535706,557.598145 858.049438,551.054871 857.689758,543.549927 
	C857.488953,539.361206 855.884216,536.003967 851.829346,534.544678 
	C847.460876,532.972412 844.404053,535.419495 842.179871,538.818726 
	C840.552917,541.305176 839.387939,544.095947 838.041443,546.763367 
	C836.318420,550.176880 834.821045,553.722595 832.870667,556.999573 
	C828.187744,564.867737 821.880798,567.799133 814.141724,566.014832 
	C806.914001,564.348389 801.601929,558.135864 800.820740,549.770142 
	C799.804504,538.888000 802.776367,528.981140 809.296936,520.253418 
	C813.563416,514.542786 815.576050,514.696045 820.578796,520.888916 
	C814.225830,527.029602 810.635925,534.684021 809.508057,543.545837 
	C808.431152,552.006653 812.727234,556.741699 820.887390,555.289673 
z"/>
<path fill="#000000" opacity="1.000000" stroke="none" 
	d="
M254.037628,717.943604 
	C256.497375,723.803955 260.138428,728.313293 265.020569,731.696777 
	C268.739227,734.273926 272.815460,735.827087 276.938019,732.423035 
	C281.141602,728.951965 280.189209,724.720520 278.104980,720.656311 
	C275.071442,714.740906 271.401581,709.127441 268.686676,703.078430 
	C264.167419,693.009216 268.084961,683.719971 277.843018,680.395264 
	C282.081879,678.951050 286.466766,679.067078 290.540955,680.834656 
	C302.871643,686.184326 309.986908,695.887756 313.411957,708.667297 
	C314.601349,713.104980 311.642670,713.623657 308.694214,714.524719 
	C304.850525,715.699463 305.212341,712.742004 304.668762,710.606262 
	C302.620972,702.560486 298.361847,695.971130 291.500763,691.238281 
	C287.666473,688.593262 283.307739,687.530762 279.498901,690.822876 
	C275.705505,694.101685 276.889221,698.358276 278.821716,702.279236 
	C281.834137,708.391541 286.070648,713.868408 288.393524,720.335144 
	C292.451965,731.633484 286.823792,741.729370 275.449768,743.630920 
	C271.154877,744.348999 267.076691,743.249695 263.454010,741.150696 
	C255.313629,736.434021 249.206161,729.794434 245.604111,720.974731 
	C244.206268,717.552002 243.622406,714.842468 248.179459,713.087891 
	C253.218109,711.147827 252.586304,715.375122 254.037628,717.943604 
z"/>
<path fill="#000000" opacity="1.000000" stroke="none" 
	d="
M216.936981,504.569214 
	C219.556122,510.261810 219.652206,515.069458 214.746704,519.585999 
	C210.483429,523.511108 207.017853,528.290405 203.041229,532.543945 
	C200.840088,534.898376 201.504669,536.234314 203.754059,538.146057 
	C208.076324,541.819336 212.456100,543.895081 218.280090,541.921509 
	C221.317551,540.892151 223.854843,541.088013 224.561584,545.649597 
	C225.214096,549.861145 224.244904,551.091492 220.127533,551.727417 
	C201.240356,554.644775 182.401627,557.878052 163.555481,561.056946 
	C159.703491,561.706726 157.024902,561.188721 156.742401,556.444641 
	C156.559113,553.366577 157.421280,551.993164 160.678253,551.513977 
	C170.367920,550.088257 180.007019,548.317017 189.661118,546.653137 
	C191.754593,546.292419 193.828201,545.816345 195.811432,545.413635 
	C196.197098,543.299805 194.688873,542.794983 193.742508,542.031860 
	C187.780930,537.224854 181.999893,532.143738 175.700775,527.821289 
	C170.514435,524.262390 169.840744,519.478821 169.758804,513.140991 
	C174.718994,515.380005 178.211746,518.673157 182.003357,521.398010 
	C192.837906,529.184204 192.723282,529.200195 201.775421,519.432495 
	C206.578979,514.249268 210.635727,508.311920 216.936981,504.569214 
z"/>
<path fill="#000000" opacity="1.000000" stroke="none" 
	d="
M243.824036,363.489105 
	C237.260925,384.022034 218.878494,390.812561 202.661819,379.023590 
	C192.631210,371.731720 190.306534,357.602142 197.292587,346.389252 
	C203.830902,335.894989 217.232346,332.082611 227.962372,337.474396 
	C230.717163,338.858643 230.407654,340.499908 229.446381,342.744965 
	C225.710846,351.469360 222.020416,360.213531 218.388229,368.981384 
	C217.713043,370.611237 216.481171,372.164612 217.049835,374.128815 
	C225.887405,376.363922 234.767212,369.115540 235.632294,358.935394 
	C235.786438,357.121643 236.043625,355.110657 235.454056,353.479614 
	C233.884338,349.137146 236.510681,348.218231 239.717606,347.572876 
	C243.558838,346.799835 243.684540,349.960327 244.132065,352.199615 
	C244.850693,355.795715 244.781784,359.484985 243.824036,363.489105 
M219.869354,346.264801 
	C219.920059,344.193298 218.318787,344.476562 217.074905,344.363647 
	C211.853119,343.889709 206.500702,347.107422 203.801559,352.294861 
	C201.090500,357.505157 201.556885,364.343811 204.975037,368.194122 
	C206.037506,369.390930 207.075546,370.846741 209.565018,370.257416 
	C212.877975,362.640686 216.299438,354.774506 219.869354,346.264801 
z"/>
<path fill="#000000" opacity="1.000000" stroke="none" 
	d="
M363.106171,180.285233 
	C369.797211,182.410706 374.590576,186.212479 378.050537,191.876831 
	C379.866577,194.849899 379.387970,196.469910 376.275055,198.125443 
	C368.204773,202.417435 360.286682,206.997147 352.339417,211.517532 
	C350.649323,212.478867 348.650055,213.100861 347.403259,215.537857 
	C350.465881,219.746155 354.943695,221.281982 359.839355,220.453125 
	C366.274567,219.363632 371.923340,216.346024 374.743408,210.014786 
	C376.194916,206.756073 377.933990,206.404648 380.963654,207.635101 
	C384.385712,209.024902 383.729340,211.212967 382.689514,213.694244 
	C377.683105,225.640610 360.562469,232.890060 348.623138,228.114136 
	C336.067963,223.091843 329.418549,207.819031 334.117645,194.962265 
	C336.995361,187.088806 348.145660,177.103760 363.106171,180.285233 
M351.182007,203.652328 
	C356.611542,200.554611 362.041107,197.456879 367.498657,194.343170 
	C363.037354,187.707809 355.231354,186.444702 348.465881,190.836227 
	C342.357147,194.801392 340.137238,201.906952 343.535492,207.553085 
	C345.850739,206.384613 348.197968,205.199997 351.182007,203.652328 
z"/>
<path fill="#000000" opacity="1.000000" stroke="none" 
	d="
M668.543701,181.720108 
	C672.162842,188.727264 671.805237,195.482529 669.347778,202.359772 
	C668.063354,205.954300 666.232910,206.851730 662.586121,205.093246 
	C652.722656,200.337128 642.708374,195.893860 632.644775,191.276413 
	C630.456726,193.939590 631.177551,196.525040 631.948364,199.007065 
	C634.435425,207.014664 642.054688,211.447113 652.138000,210.892868 
	C654.181519,210.780518 656.348816,209.861008 657.413025,212.980286 
	C658.609314,216.486969 658.365356,218.445679 654.223755,219.478622 
	C642.578552,222.383026 627.645874,214.357407 623.116028,202.438293 
	C618.815308,191.121719 624.686462,176.710754 635.900818,171.057739 
	C646.981445,165.472168 661.101990,169.963364 668.543701,181.720108 
M638.806152,185.851593 
	C646.120850,189.232452 653.435608,192.613327 660.725586,195.982773 
	C663.636108,189.795181 660.878967,182.894409 654.788574,179.493881 
	C648.239014,175.837006 640.166016,177.055283 636.645325,182.035828 
	C634.997192,184.367371 636.648743,184.845612 638.806152,185.851593 
z"/>
<path fill="#000000" opacity="1.000000" stroke="none" 
	d="
M749.970093,665.789673 
	C751.557800,651.408447 759.145508,641.606567 770.787720,638.431396 
	C780.726990,635.720764 793.042847,641.120911 798.523010,650.592590 
	C804.377930,660.711853 802.524719,672.555176 793.750549,681.093689 
	C786.152405,688.487793 774.067017,689.571289 764.682556,683.919556 
	C761.224609,681.837097 760.579956,679.897705 763.101746,676.422974 
	C768.470276,669.025574 773.477112,661.364563 778.578308,653.775452 
	C779.571716,652.297546 780.983154,650.990356 781.065491,649.035217 
	C776.553894,646.271118 770.948547,646.763306 766.422058,650.507812 
	C761.863281,654.279053 758.943726,659.037842 759.057556,665.129944 
	C759.114563,668.178589 758.644531,670.111389 755.042358,670.643372 
	C751.193604,671.211731 750.438354,669.088379 749.970093,665.789673 
M779.790100,665.226257 
	C777.520874,669.174255 774.105225,672.468872 772.712769,676.941956 
	C779.696655,680.354248 787.267090,677.693298 791.070557,670.752319 
	C794.624268,664.267151 793.299866,656.901855 787.621765,653.572266 
	C785.159546,657.239075 782.678040,660.934570 779.790100,665.226257 
z"/>
<path fill="#000000" opacity="1.000000" stroke="none" 
	d="
M460.928406,172.117432 
	C454.343353,173.331055 448.179840,174.470505 441.966431,175.619186 
	C445.802582,188.167648 460.183716,188.931152 472.533539,177.724548 
	C479.473816,180.762207 479.938446,183.050140 474.571167,187.758072 
	C464.700836,196.415894 447.870636,196.701874 438.671875,188.368118 
	C429.207001,179.793289 427.577423,164.477051 435.043701,154.267319 
	C440.515869,146.784409 451.692719,142.817444 460.936981,145.077133 
	C470.239319,147.350998 477.600098,155.602982 478.997131,165.058945 
	C479.429626,167.985992 478.089203,168.892227 475.551727,169.323807 
	C470.801056,170.131836 466.082123,171.126328 460.928406,172.117432 
M461.039734,164.552841 
	C463.210999,163.475662 466.040527,164.375793 467.908966,162.392197 
	C465.541687,155.068436 458.790466,151.620911 450.913544,153.618362 
	C443.962372,155.381058 439.622559,161.287827 440.753357,167.780975 
	C447.363922,167.607147 453.705322,165.544495 461.039734,164.552841 
z"/>
<path fill="#000000" opacity="1.000000" stroke="none" 
	d="
M805.826782,461.810913 
	C805.758789,456.779633 806.682373,452.407318 809.293762,448.579681 
	C812.310974,444.157104 816.796387,442.590210 821.918396,443.098602 
	C827.335205,443.636322 831.053345,446.624207 833.241943,451.681335 
	C835.843384,457.692719 834.980591,464.150940 835.922974,470.371735 
	C836.604675,474.871124 838.629395,475.882996 842.612183,473.483551 
	C846.529480,471.123566 848.306763,466.041199 847.390442,460.220093 
	C846.652893,455.534637 844.517761,451.429779 842.155151,447.522217 
	C847.340332,441.768494 849.320801,442.026428 852.623535,448.649170 
	C855.602661,454.623108 856.640076,460.986786 856.113281,467.568420 
	C855.264526,478.172150 849.114075,484.140198 837.861511,485.045166 
	C829.905273,485.685059 821.915222,485.951263 813.934570,486.210907 
	C811.803894,486.280212 808.712830,487.431854 808.030029,484.212006 
	C807.414734,481.310638 806.240356,477.679749 811.181885,476.362762 
	C808.103882,471.863892 806.389160,467.258453 805.826782,461.810913 
M826.847473,475.474091 
	C829.716919,471.535126 828.236511,457.008911 824.686218,454.266968 
	C821.809875,452.045532 817.246704,452.576019 815.548828,455.740173 
	C813.010376,460.470734 813.590820,465.446899 815.935608,470.056427 
	C817.964844,474.045837 821.284119,476.342102 826.847473,475.474091 
z"/>
<path fill="#000000" opacity="1.000000" stroke="none" 
	d="
M220.407822,647.565063 
	C222.785690,650.661133 226.076431,652.158020 228.572098,654.488953 
	C226.212036,661.760315 224.187027,662.548279 218.663086,657.819641 
	C211.054016,651.306030 205.702850,643.398376 206.266296,632.861145 
	C206.620667,626.234009 210.937378,621.972229 216.391373,618.928589 
	C223.656845,614.873962 231.032516,611.011719 238.434891,607.211060 
	C240.296173,606.255432 242.509583,603.891785 244.482895,606.919006 
	C246.130341,609.446350 248.713623,612.158447 244.581802,615.201294 
	C251.603577,619.191223 255.783173,624.945984 257.703217,632.363770 
	C259.494904,639.285767 256.857574,645.868042 250.998947,649.078003 
	C244.904709,652.417114 239.178345,651.353821 233.904099,645.839600 
	C229.685043,641.428589 227.284210,635.868286 224.619904,630.526611 
	C222.649277,626.575684 220.570862,627.314148 218.212006,629.794373 
	C215.764053,632.368469 214.757080,635.424744 215.744522,638.978516 
	C216.606735,642.081543 218.164810,644.805786 220.407822,647.565063 
M230.683517,626.192200 
	C233.080322,630.547974 234.737213,635.355286 238.192093,639.065735 
	C239.943359,640.946533 242.068314,642.306396 244.842422,641.125366 
	C247.521118,639.985046 249.118637,637.879822 249.401199,635.045837 
	C250.026215,628.777527 243.124588,620.614075 236.792297,620.563965 
	C233.832504,620.540588 229.692154,620.336304 230.683517,626.192200 
z"/>
<path fill="#000000" opacity="1.000000" stroke="none" 
	d="
M821.942017,360.010925 
	C819.215332,358.127563 818.218445,356.477844 820.694458,353.784332 
	C823.037720,351.235229 825.078247,351.139526 827.457336,353.419678 
	C835.233582,360.872406 839.377502,369.845123 838.129883,380.724335 
	C837.472534,386.456116 833.871887,390.696564 828.685181,392.772583 
	C819.268494,396.541718 809.613892,399.718567 800.039612,403.088837 
	C798.791077,403.528320 797.157837,403.889038 796.526062,402.308899 
	C795.641663,400.097076 793.912231,397.889893 795.449097,395.293335 
	C795.838135,394.635895 796.935913,394.435120 796.651489,393.057007 
	C791.485657,388.805389 788.481628,383.013550 787.178589,376.267029 
	C785.759277,368.918243 789.196289,361.931885 795.532349,359.321777 
	C802.310181,356.529633 808.548157,358.749969 813.086304,365.569550 
	C815.425293,369.084381 816.499756,373.136658 817.981628,377.018921 
	C818.976990,379.626434 819.363708,382.491669 821.083557,384.781464 
	C827.645996,383.140869 830.316589,379.007141 829.063782,372.758636 
	C828.080688,367.855011 825.736450,363.739471 821.942017,360.010925 
M795.383301,376.290771 
	C796.017761,379.404938 797.031372,382.373993 798.961487,384.939758 
	C802.680603,389.883545 808.128296,390.801331 813.312927,387.221893 
	C812.125549,382.327087 810.664795,377.432739 808.347961,372.841217 
	C806.863708,369.899628 804.800720,367.357117 801.074646,367.983215 
	C797.011658,368.665924 795.345276,371.546448 795.383301,376.290771 
z"/>
<path fill="#000000" opacity="1.000000" stroke="none" 
	d="
M441.175171,795.716553 
	C445.496765,796.601196 449.461945,797.202271 453.289642,798.288147 
	C456.677368,799.249207 457.864227,797.668335 458.442902,794.818909 
	C459.532471,789.454041 460.749359,784.111206 461.675446,778.718323 
	C462.261902,775.303162 463.972778,774.218567 467.245026,774.998413 
	C470.117065,775.682922 472.623077,776.014099 471.683289,780.352112 
	C467.746063,798.526062 464.049011,816.753845 460.472839,835.002808 
	C459.756195,838.659729 458.040009,839.075500 454.883484,838.411926 
	C443.012085,835.915955 431.110474,833.562805 419.211731,831.198364 
	C416.223907,830.604614 414.448242,829.680908 415.292908,825.879272 
	C416.126282,822.128784 417.659576,821.465454 421.196411,822.316528 
	C428.940002,824.179688 436.779388,825.648743 444.590546,827.224670 
	C446.668304,827.643799 448.751160,828.376038 451.411377,827.612000 
	C452.569733,822.121216 453.696014,816.456177 454.983185,810.827881 
	C455.568665,808.267822 454.230469,807.673279 452.156738,807.248108 
	C444.513763,805.681213 436.907898,803.930603 429.254913,802.416931 
	C426.197540,801.812195 424.502136,801.007874 425.369080,797.194214 
	C426.176788,793.640930 427.797760,792.903564 430.982147,793.664429 
	C434.214203,794.436707 437.497894,794.992920 441.175171,795.716553 
z"/>
<path fill="#000000" opacity="1.000000" stroke="none" 
	d="
M548.832520,143.972687 
	C559.165039,151.847626 562.607788,162.409409 558.760620,173.661362 
	C555.361267,183.603592 545.852295,190.273026 535.063110,190.282410 
	C523.515015,190.292465 513.957214,183.865005 510.465637,173.462143 
	C507.158417,163.608826 509.015961,154.530228 516.317078,147.242371 
	C524.107361,139.466110 533.687622,138.064545 544.001526,141.691589 
	C545.558472,142.239120 547.014587,143.073471 548.832520,143.972687 
M533.752197,181.598877 
	C535.972412,181.859268 538.051147,181.159576 540.067444,180.452530 
	C546.680359,178.133728 551.135864,170.512589 550.200195,163.345261 
	C549.112671,155.015091 544.196228,149.865845 536.678528,149.183243 
	C528.099182,148.404266 521.944153,152.053528 519.928650,159.906891 
	C517.359741,169.916626 521.038147,179.207642 533.752197,181.598877 
z"/>
<path fill="#000000" opacity="1.000000" stroke="none" 
	d="
M721.452515,707.548645 
	C725.792175,711.710449 729.750061,715.772705 733.999512,719.502747 
	C739.591980,724.411621 745.088440,724.517822 750.168396,720.195435 
	C755.992676,715.239502 757.510742,708.328247 753.823547,702.368103 
	C752.529541,700.276550 750.746338,698.447144 748.997986,696.685059 
	C744.541748,692.193909 740.097778,687.677734 735.417419,683.426453 
	C732.330811,680.622803 733.728027,678.825745 735.952271,676.487427 
	C738.340149,673.977051 740.016296,674.031372 742.488037,676.497803 
	C751.679749,685.669922 761.107117,694.605347 770.358459,703.718567 
	C771.957825,705.293945 775.025818,706.769104 772.360291,709.779114 
	C770.194214,712.225098 768.138062,715.645325 763.983826,711.235229 
	C762.758423,718.016724 760.066650,723.331970 755.403870,727.662048 
	C747.446045,735.052307 737.430542,735.730286 729.275696,728.569885 
	C722.278015,722.425537 715.848022,715.638489 709.071289,709.236877 
	C706.512268,706.819458 707.940430,705.185303 709.785522,703.481934 
	C711.518188,701.882202 712.950928,699.089294 715.810181,702.097961 
	C717.528992,703.906555 719.398621,705.571655 721.452515,707.548645 
z"/>
<path fill="#000000" opacity="1.000000" stroke="none" 
	d="
M405.589661,783.611633 
	C409.611969,772.963684 407.358673,767.162537 398.320709,764.174316 
	C391.559906,761.938904 385.307617,764.321106 382.093719,771.115051 
	C378.753235,778.176514 375.952789,785.502747 373.133392,792.797180 
	C371.843628,796.134155 370.315094,797.078308 366.766602,795.545044 
	C363.270142,794.034119 362.267242,792.530457 363.855988,788.797852 
	C368.810394,777.157959 373.370209,765.350708 378.223755,753.666809 
	C379.131439,751.481750 379.243958,747.782959 383.322937,749.135010 
	C386.418091,750.160889 390.340637,750.811951 387.394928,756.435608 
	C394.244904,754.483398 400.025116,754.793762 405.711456,757.532471 
	C415.922089,762.450134 420.173004,771.070801 416.568756,781.813660 
	C413.661011,790.480469 409.839081,798.837402 406.554749,807.382568 
	C405.232727,810.822266 403.126556,810.202332 400.578308,809.105713 
	C397.953888,807.976379 395.725830,807.074646 397.413666,803.347534 
	C400.295624,796.983337 402.792877,790.444946 405.589661,783.611633 
z"/>
<path fill="#000000" opacity="1.000000" stroke="none" 
	d="
M647.331848,768.170410 
	C652.090637,767.218079 656.272705,765.294678 660.926270,766.414124 
	C669.497620,768.476135 673.658386,777.218628 669.683044,785.083679 
	C665.579346,793.202698 651.022827,800.726074 642.158752,799.309387 
	C638.980896,798.801453 638.788513,797.983948 640.349609,790.822144 
	C646.130249,790.910645 651.779480,789.742188 656.733704,786.393188 
	C659.503296,784.520935 662.802063,782.349609 661.158264,778.464417 
	C659.561340,774.690308 655.960388,775.097534 652.496399,776.003052 
	C648.316040,777.095886 644.103088,778.099304 639.859558,778.906799 
	C633.249390,780.164551 628.428223,778.192017 625.597778,773.329041 
	C622.501831,768.009949 622.899170,761.997559 627.396484,757.183350 
	C634.710571,749.353943 644.116211,746.037109 654.680481,745.742920 
	C657.471130,745.665222 659.223022,746.870361 658.922546,749.908142 
	C658.659363,752.569092 658.542480,755.314880 654.539246,755.096130 
	C648.749939,754.779846 643.291138,756.227234 638.334778,759.229065 
	C635.444336,760.979614 632.372253,763.118835 633.859009,767.104370 
	C635.354004,771.112305 639.055664,769.827087 642.100830,769.504395 
	C643.736450,769.331055 645.325928,768.721985 647.331848,768.170410 
z"/>
<path fill="#000000" opacity="1.000000" stroke="none" 
	d="
M811.787354,571.064026 
	C835.661377,573.318237 842.301147,596.824768 830.418396,612.950317 
	C828.195374,615.966919 825.366882,618.233643 821.832458,619.563049 
	C819.733154,620.352661 817.382996,621.223145 816.401978,618.309998 
	C815.558472,615.804932 814.203552,613.187561 817.998657,611.133240 
	C825.744080,606.940735 828.820312,599.790649 826.680603,592.484802 
	C824.675171,585.637573 817.683960,580.897949 809.737854,580.998840 
	C799.292542,581.131348 792.075439,591.695435 795.518677,601.803711 
	C796.125793,603.586060 797.637695,605.144531 795.795593,607.271973 
	C792.166809,611.462830 789.885559,611.148254 787.391724,606.098022 
	C781.644165,594.458862 789.878357,570.940674 811.787354,571.064026 
z"/>
<path fill="#000000" opacity="1.000000" stroke="none" 
	d="
M198.038803,594.993896 
	C204.598022,600.157959 211.226959,599.910278 217.895569,596.264709 
	C223.344604,593.285828 226.114502,588.537720 225.607941,582.281372 
	C225.203751,577.289246 223.255310,572.954956 218.881699,570.059326 
	C213.401474,566.431213 213.398224,566.436096 216.603821,559.702148 
	C220.977341,559.853394 224.363953,562.155151 227.281631,565.165894 
	C234.763641,572.886597 236.659790,586.411499 231.713409,595.832458 
	C227.399597,604.048645 215.943802,610.192566 207.096085,609.035156 
	C195.786118,607.555664 187.193604,599.312256 184.736786,587.828674 
	C183.578506,582.414673 183.974121,577.241333 186.519791,572.346375 
	C187.440445,570.576111 188.431900,567.803711 191.266525,569.844482 
	C193.340347,571.337524 196.851807,572.303650 194.913864,576.266541 
	C191.589172,583.065247 193.141907,589.151917 198.038803,594.993896 
z"/>
<path fill="#000000" opacity="1.000000" stroke="none" 
	d="
M400.934631,200.056061 
	C391.235352,189.815125 381.776764,179.833572 372.252747,169.783020 
	C379.333496,164.756790 380.592896,164.850159 385.729645,170.391464 
	C391.843597,176.986923 397.917114,183.620041 404.063385,190.185135 
	C405.269257,191.473145 406.200470,193.164902 408.638489,193.780777 
	C410.163910,185.862350 409.846222,177.884979 410.701355,170.035675 
	C411.061432,166.730408 411.070129,163.386337 411.444824,160.083313 
	C412.184296,153.565491 412.829163,153.029770 420.046844,152.312836 
	C421.190338,161.133987 419.212524,169.846588 419.061462,178.606232 
	C418.935577,185.905624 417.724152,193.181992 417.465363,200.485275 
	C417.338684,204.059753 415.585602,205.346924 412.664124,206.431870 
	C409.879730,207.465912 407.610474,207.729004 405.575562,205.088852 
	C404.259644,203.381470 402.652161,201.898819 400.934631,200.056061 
z"/>
<path fill="#000000" opacity="1.000000" stroke="none" 
	d="
M264.332947,645.818115 
	C267.437988,647.534363 269.825043,649.559570 271.695007,652.183289 
	C277.243927,659.968750 276.131958,667.789795 268.503387,673.560425 
	C262.802002,677.873230 257.055176,682.132996 251.197754,686.229309 
	C248.516495,688.104431 247.444641,689.939697 249.930801,692.636780 
	C252.210098,695.109314 250.919250,696.626221 248.717545,698.221802 
	C246.606918,699.751343 244.813736,700.212891 243.365753,697.614807 
	C241.508972,694.283203 239.331650,694.054443 236.730286,696.720032 
	C233.346024,700.187744 230.955780,699.211731 228.597961,695.354248 
	C227.016678,692.767090 227.244934,691.186951 229.751114,689.632141 
	C231.281616,688.682495 232.650360,687.472107 234.555237,686.027344 
	C232.558075,683.123047 230.818192,680.356689 228.834167,677.778198 
	C227.072601,675.488770 227.615768,673.994629 229.826080,672.458435 
	C231.805710,671.082520 233.555740,670.130432 235.331131,672.616211 
	C235.523788,672.885986 235.761124,673.123657 235.973953,673.379333 
	C242.101410,680.739197 242.094025,680.729370 250.006012,674.870544 
	C253.615097,672.198059 257.276520,669.596252 260.883820,666.921387 
	C266.884949,662.471130 267.063385,658.358032 261.474670,653.614624 
	C260.261536,652.584961 258.151611,651.890015 259.268799,649.806885 
	C260.273132,647.934204 260.691223,645.034058 264.332947,645.818115 
z"/>
<path fill="#000000" opacity="1.000000" stroke="none" 
	d="
M725.858154,766.055542 
	C721.916443,765.297058 721.550354,760.854919 717.937683,759.535400 
	C715.524963,761.248169 712.909912,762.989136 710.426514,764.901001 
	C708.060364,766.722717 706.557129,765.736023 705.064392,763.712402 
	C703.596191,761.722046 702.957764,760.052368 705.405518,758.225098 
	C708.031982,756.264282 711.023560,754.688721 713.280334,751.659912 
	C708.150513,744.828125 703.256470,737.913452 697.927490,731.351990 
	C694.334534,726.928101 689.727112,727.261292 686.318726,732.172302 
	C684.349854,735.009155 682.746948,735.551697 679.887390,733.684265 
	C676.672058,731.584595 678.209656,729.477539 679.573242,727.351562 
	C686.537292,716.493286 698.673462,715.896912 706.496582,726.054871 
	C710.765198,731.597412 715.009949,737.163757 719.073547,742.856384 
	C720.775452,745.240479 722.296082,746.106750 724.610413,743.798767 
	C726.663330,741.751465 728.443604,741.625732 730.310974,744.240479 
	C731.986328,746.586243 732.919922,748.502930 729.791992,750.370361 
	C727.616943,751.668884 726.978027,753.219604 728.609985,755.704224 
	C732.590576,761.764587 732.475037,761.840454 725.858154,766.055542 
z"/>
<path fill="#000000" opacity="1.000000" stroke="none" 
	d="
M607.299683,778.774780 
	C604.056641,772.763184 600.745239,771.673218 595.548584,775.434265 
	C592.531677,777.617798 590.943542,776.852966 589.015869,774.370972 
	C586.833313,771.560791 588.890869,770.046387 590.696411,768.645691 
	C599.379578,761.909485 612.533752,761.978333 616.580566,775.639648 
	C618.515137,782.170288 620.881653,788.574219 622.764343,795.118469 
	C623.709351,798.403687 624.952820,800.239319 628.608765,798.554688 
	C631.286621,797.320679 632.547180,798.659424 633.381042,801.126282 
	C634.171692,803.465393 634.406738,805.546204 631.472839,806.227234 
	C627.485718,807.152710 626.788452,809.322144 628.554138,812.712708 
	C630.750793,816.930725 628.724792,818.572693 624.764893,819.677368 
	C621.438782,820.605164 620.016968,819.313660 619.466492,816.396790 
	C618.535522,811.462830 615.831177,810.807068 611.630798,812.724060 
	C609.852600,813.535522 607.803101,814.212708 605.894958,814.168701 
	C603.213379,814.106934 603.442200,811.356018 602.960571,809.595032 
	C602.182495,806.750244 604.721985,806.446655 606.496338,805.781372 
	C614.879700,802.638489 614.869934,802.666260 612.210144,794.362610 
	C610.587097,789.295410 609.030029,784.207092 607.299683,778.774780 
z"/>
<path fill="#000000" opacity="1.000000" stroke="none" 
	d="
M848.046082,405.061981 
	C849.778442,405.986298 851.355347,405.896942 852.715576,405.372101 
	C856.826538,403.785828 858.368408,405.611084 859.206726,409.434143 
	C860.148804,413.730591 857.750427,414.764587 854.397278,415.055817 
	C850.903687,415.359192 849.721313,417.023956 850.709106,420.412109 
	C851.218689,422.160034 851.362671,424.011322 851.800415,425.784119 
	C852.581482,428.946320 850.866638,429.893372 848.165039,430.378326 
	C845.522278,430.852631 844.091797,430.192169 843.643555,427.339142 
	C843.159241,424.256714 842.290161,421.234711 841.472229,417.678833 
	C832.306213,419.293304 823.460022,420.574646 814.925598,423.212189 
	C810.347595,424.627014 809.016907,429.085358 812.001526,433.863770 
	C814.041748,437.130096 813.031006,438.554779 810.393494,440.179688 
	C807.111450,442.201752 805.885925,439.689636 804.612061,437.572235 
	C797.846497,426.326843 802.643005,415.532654 815.534424,412.648712 
	C823.291565,410.913300 831.248535,410.036652 839.032593,407.535492 
	C839.315186,404.143372 836.784241,399.622498 842.728760,398.891815 
	C847.568420,398.296967 846.557068,402.435394 848.046082,405.061981 
z"/>
<path fill="#000000" opacity="1.000000" stroke="none" 
	d="
M364.349792,753.289429 
	C355.959686,768.052307 347.677063,782.455994 339.572021,796.958923 
	C337.867645,800.008667 336.417328,801.077515 333.030884,798.988953 
	C329.902374,797.059570 328.821228,795.546082 330.900208,791.966003 
	C340.744110,775.014404 350.376160,757.939270 360.001373,740.861694 
	C361.557648,738.100403 363.035828,736.784973 366.212891,738.855896 
	C368.914001,740.616577 371.486115,741.922058 368.851898,745.685913 
	C367.237274,747.992859 365.953033,750.531189 364.349792,753.289429 
z"/>
<path fill="#000000" opacity="1.000000" stroke="none" 
	d="
M315.002441,766.052612 
	C323.658447,753.182556 332.207123,740.673523 340.515472,728.006775 
	C342.864471,724.425537 344.821869,725.748108 347.455292,727.397278 
	C350.339844,729.203796 350.793793,730.862610 348.783173,733.784607 
	C337.647797,749.967041 326.581116,766.198853 315.709930,782.559265 
	C313.430176,785.990112 311.527832,785.892212 308.452881,783.852844 
	C305.323273,781.777283 305.077240,779.903259 307.373352,776.998230 
	C310.051788,773.609375 312.344177,769.915405 315.002441,766.052612 
z"/>
<path fill="#000000" opacity="1.000000" stroke="none" 
	d="
M489.603638,170.345352 
	C488.661072,155.431351 487.791626,140.982925 486.776642,126.544708 
	C486.527191,122.996117 487.841461,121.373238 491.395599,120.982780 
	C495.157806,120.569458 496.416412,122.199196 496.606171,125.704628 
	C496.974396,132.507492 497.669983,139.292023 498.091156,146.092743 
	C498.862457,158.546494 499.595093,171.003357 500.216553,183.465286 
	C500.485687,188.861832 498.287872,190.452271 492.888031,189.484695 
	C490.803253,189.111160 490.845825,187.733841 490.559143,186.256958 
	C489.567169,181.146255 489.756104,175.972382 489.603638,170.345352 
z"/>
<path fill="#000000" opacity="1.000000" stroke="none" 
	d="
M700.317627,198.731079 
	C702.949524,199.291122 705.311340,199.574570 707.413635,200.468414 
	C709.588318,201.393005 713.280090,201.679184 711.458984,205.714340 
	C709.924683,209.114059 708.328247,211.613632 703.629700,209.001648 
	C697.163574,205.407135 691.402527,207.005463 686.597351,213.334274 
	C682.788269,218.351105 679.696899,223.907394 676.012085,229.026352 
	C674.098450,231.684845 673.546509,236.917145 667.715637,233.322784 
	C661.676208,229.599823 666.055847,226.598648 667.882263,223.668091 
	C674.033752,213.798126 680.412231,204.068008 686.812622,194.356079 
	C688.200134,192.250610 688.910339,188.499191 693.001343,190.861069 
	C696.103516,192.651993 699.254395,194.326126 695.292480,198.722626 
	C697.358337,198.722626 698.645935,198.722626 700.317627,198.731079 
z"/>
<path fill="#000000" opacity="1.000000" stroke="none" 
	d="
M820.001892,637.367615 
	C816.714233,644.059998 816.712097,644.064270 810.327026,640.829834 
	C799.487610,635.338928 788.681091,629.781677 777.795776,624.383362 
	C774.381836,622.690247 773.099243,620.952698 775.129883,617.050049 
	C777.193115,613.084778 779.403503,613.970825 782.363037,615.492554 
	C793.760071,621.352783 805.224487,627.081787 816.628479,632.928589 
	C818.285156,633.778015 820.656616,634.239502 820.001892,637.367615 
z"/>
<path fill="#000000" opacity="1.000000" stroke="none" 
	d="
M681.486755,751.555054 
	C685.537109,758.268494 689.270264,764.753967 693.307922,771.043945 
	C695.582153,774.586914 693.595520,775.924194 690.952332,777.624634 
	C687.974121,779.540405 686.375244,778.833069 684.642883,775.900146 
	C677.968323,764.599365 671.166138,753.370911 664.211304,742.240723 
	C662.213623,739.043884 662.234619,737.213867 665.751282,735.104919 
	C669.311768,732.969727 670.977417,733.907532 672.775208,737.178650 
	C675.413391,741.978760 678.437317,746.566833 681.486755,751.555054 
z"/>
<path fill="#000000" opacity="1.000000" stroke="none" 
	d="
M713.519836,254.546265 
	C720.234436,254.906723 723.486389,259.059631 720.923279,263.587860 
	C719.443726,266.201874 717.204041,267.875122 713.994751,267.441559 
	C711.054871,267.044495 709.110413,265.303070 708.611145,262.379150 
	C707.970398,258.627106 709.445435,255.923950 713.519836,254.546265 
z"/>
<path fill="#000000" opacity="1.000000" stroke="none" 
	d="
M549.954712,780.949951 
	C550.532837,776.779907 552.690613,774.487061 556.538208,774.413818 
	C559.672180,774.354187 561.836365,776.168884 562.809570,779.151917 
	C563.819519,782.247559 562.622742,784.730042 560.128601,786.519897 
	C556.031860,789.459900 551.984558,787.351135 549.954712,780.949951 
z"/>
<path fill="#000000" opacity="1.000000" stroke="none" 
	d="
M694.002136,793.715271 
	C692.064514,790.505676 691.999939,787.611755 694.438232,785.222107 
	C697.013855,782.697876 700.175537,782.428650 702.937500,784.803772 
	C705.693909,787.173950 706.103577,790.264099 703.638000,793.145874 
	C700.897766,796.348450 697.718323,797.316589 694.002136,793.715271 
z"/>
<path fill="#000000" opacity="1.000000" stroke="none" 
	d="
M828.305786,651.589722 
	C827.283875,650.265320 826.272522,649.264038 825.913025,648.066956 
	C824.882385,644.635376 827.252014,640.570435 830.677307,640.059326 
	C834.298279,639.518982 836.770996,641.247009 837.630310,644.836853 
	C838.476501,648.371216 835.970215,651.938965 832.413513,652.575073 
	C831.039246,652.820801 829.796814,652.496765 828.305786,651.589722 
z"/>
</svg>